<svg xmlns="http://www.w3.org/2000/svg" viewBox="0 0 356.65 423.86"><defs><style>.cls-1{fill:#00a2df;}</style></defs><title>arrows</title><g id="Ebene_2" data-name="Ebene 2"><g id="Ebene_2-2" data-name="Ebene 2"><polygon class="cls-1" points="95.91 93.59 61.25 126.94 61.8 93.05 95.91 93.59"/><polygon class="cls-1" points="177.3 213.62 173.18 209.61 288.66 92.27 292.78 96.27 177.3 213.62"/><polygon class="cls-1" points="172.36 214.86 172.36 10.74 178.13 10.74 178.13 208.37 347.06 187.5 347.77 193.18 172.36 214.86"/><polygon class="cls-1" points="301.02 118.88 267.45 84.46 301.56 84.99 301.02 118.88"/><polygon class="cls-1" points="27.71 173.01 19.89 220.3 0 192.77 27.71 173.01"/><polygon class="cls-1" points="38.73 309.28 72.3 343.7 38.19 343.16 38.73 309.28"/><polygon class="cls-1" points="200.96 24.34 152.72 23.58 177.22 0 200.96 24.34"/><polygon class="cls-1" points="269.79 345.07 304.44 311.73 303.9 345.61 269.79 345.07"/><polygon class="cls-1" points="153.68 399.52 201.92 400.28 177.42 423.86 153.68 399.52"/><polygon class="cls-1" points="336.13 209.88 329.39 162.43 356.65 182.81 336.13 209.88"/><rect class="cls-1" x="173.64" y="211.6" width="5.77" height="199.14" transform="translate(-3.99 2.3) rotate(-0.74)"/><rect class="cls-1" x="95.34" y="127.12" width="5.73" height="154.74" transform="translate(-114.46 283.46) rotate(-84.72)"/><polygon class="cls-1" points="44.28 337.88 40.33 333.71 173.27 209.53 177.22 213.7 44.28 337.88"/><polygon class="cls-1" points="288.61 336.32 72.39 105.29 76.61 101.39 292.83 332.41 288.61 336.32"/></g></g></svg>