<svg xmlns="http://www.w3.org/2000/svg" viewBox="0 0 44.44 42.47"><defs><style>.cls-1{fill:#fff;}</style></defs><title>linkedin-icon</title><g id="Ebene_2" data-name="Ebene 2"><g id="Ebene_1-2" data-name="Ebene 1"><path class="cls-1" d="M.57,42.47h9.53V13.81H.57ZM5.39,0C2.13,0,0,2.14,0,5a4.94,4.94,0,0,0,5.27,5h.06c3.32,0,5.39-2.2,5.39-5A5,5,0,0,0,5.39,0M44.44,26V42.47H34.92V27.14c0-3.85-1.38-6.48-4.83-6.48a5.21,5.21,0,0,0-4.89,3.48,6.5,6.5,0,0,0-.32,2.32v16H15.36s.13-26,0-28.66h9.53v4.06l-.06.09h.06v-.09a9.46,9.46,0,0,1,8.59-4.74c6.27,0,11,4.1,11,12.9"/></g></g></svg>