<svg xmlns="http://www.w3.org/2000/svg" viewBox="0 0 44.44 29.9"><defs><style>.cls-1{fill:#fff;}</style></defs><title>mail-icon</title><g id="Ebene_2" data-name="Ebene 2"><g id="Ebene_1-2" data-name="Ebene 1"><path class="cls-1" d="M40.52,26.45H3.93A.49.49,0,0,1,3.45,26v-22s0,0,0-.07l15.27,11a6.66,6.66,0,0,0,7.5.23L41,5.79V26a.49.49,0,0,1-.48.48m-2.26-23L24.4,12.21a3.22,3.22,0,0,1-3.63-.11L8.8,3.45ZM40.52,0H3.93A3.93,3.93,0,0,0,0,3.93V26A3.93,3.93,0,0,0,3.93,29.9H40.52A3.93,3.93,0,0,0,44.44,26v-22A3.93,3.93,0,0,0,40.52,0"/></g></g></svg>