<svg xmlns="http://www.w3.org/2000/svg" viewBox="0 0 38.14 40.89"><defs><style>.cls-1{fill:#fff;}</style></defs><title>phone-icon</title><g id="Ebene_2" data-name="Ebene 2"><g id="Ebene_1-2" data-name="Ebene 1"><path class="cls-1" d="M0,13C.15,8.11,1.7,4.56,5.18,2,5.82,1.47,6.36.86,7,.44a2.63,2.63,0,0,1,3.58.64,32.68,32.68,0,0,1,2.75,3.72,14.44,14.44,0,0,1,1.53,2.94,4,4,0,0,1-1.23,4.85c-.78.66-1.59,1.29-2.39,1.93a3.31,3.31,0,0,0-1,4.15A18,18,0,0,0,13.57,24a28.4,28.4,0,0,0,5.1,5,7,7,0,0,0,2.73,1.25,3.06,3.06,0,0,0,2.79-1A27.84,27.84,0,0,1,27,26.76a3.77,3.77,0,0,1,4.2-.1A19.44,19.44,0,0,1,37.42,32c1.16,1.51.9,2.94-.56,4.2-1,.85-1.94,1.75-3,2.52a11.48,11.48,0,0,1-4.22,1.86,13.06,13.06,0,0,1-5.5.14,19.37,19.37,0,0,1-6.86-2.79A43.73,43.73,0,0,1,6.92,28.16a38.43,38.43,0,0,1-5-7.84A19.86,19.86,0,0,1,.67,16.67C.32,15.27.14,13.83,0,13"/></g></g></svg>